<?xml version="1.0" encoding="UTF-8" standalone="no"?>
<svg
   xmlns="http://www.w3.org/2000/svg"
   version="1.1"
   width="24"
   height="120"
   viewBox="0 0 24 120"
   id="svg2">
  <path
     d="m 12.456881,52.529611 -5.3124483,13.813085 4.83e-4,1.75e-4 c -0.6620623,2.717295 2.8667673,3.328684 3.6897293,1.419055 l 4.83e-4,2.2e-4 5.312404,-13.813173 c 0.103829,-0.270219 0.696291,-0.79371 0.696291,-0.79371 0.02972,-0.02265 0.05277,-0.0486 0.06849,-0.07806 l 0.0025,-0.0054 c 0.0029,-0.0058 0.0062,-0.01133 0.0085,-0.01734 0.136947,-0.356177 -0.746587,-1.027488 -1.973482,-1.49935 -1.226983,-0.471863 -2.332664,-0.565638 -2.469639,-0.209458 0.01252,0.399601 -0.01,0.819867 -0.02331,1.183914 z"
     id="path4159"
     style="fill:#bbbbbb;fill-opacity:1;stroke:none" />
  <path
     d="m 14.139606,57.485686 -3.831007,9.961267 0.0025,9.22e-4 C 10.028546,68.161816 9.2062546,68.533273 8.4768171,68.252737 7.7473795,67.972202 7.3525657,67.132701 7.6212481,66.413361 l 0,0 2.4479069,-6.36505 c 0,0 0.305736,-0.493156 0.906013,-0.844023 0.600277,-0.350824 1.09532,-0.276804 1.761889,-0.573057 0.666526,-0.296254 1.402549,-1.145545 1.402549,-1.145545 z"
     id="path4019"
     style="fill:#78b2f2;fill-opacity:1" />
  <path
     d="m 12.456881,76.529613 -5.3124483,13.813085 4.83e-4,1.75e-4 c -0.6620623,2.717295 2.8667673,3.328684 3.6897293,1.419055 l 4.83e-4,2.2e-4 5.312404,-13.813173 c 0.103829,-0.270219 0.696291,-0.79371 0.696291,-0.79371 0.02972,-0.02265 0.05277,-0.0486 0.06849,-0.07806 l 0.0025,-0.0054 c 0.0029,-0.0058 0.0062,-0.01133 0.0085,-0.01734 0.136947,-0.356177 -0.746587,-1.027488 -1.973482,-1.49935 -1.226983,-0.471863 -2.332664,-0.565638 -2.469639,-0.209458 0.01252,0.399601 -0.01,0.819867 -0.02331,1.183914 z"
     id="path3038"
     style="fill:#bbbbbb;fill-opacity:1;stroke:none" />
  <path
     d="m 14.139606,81.485688 -3.831007,9.961267 0.0025,9.22e-4 C 10.028546,92.161818 9.2062546,92.533275 8.4768171,92.252739 7.7473795,91.972204 7.3525657,91.132703 7.6212481,90.413363 l 0,0 2.4479069,-6.36505 c 0,0 0.305736,-0.493156 0.906013,-0.844023 0.600277,-0.350824 1.09532,-0.276804 1.761889,-0.573057 0.666526,-0.296254 1.402549,-1.145545 1.402549,-1.145545 z"
     id="path3040"
     style="fill:#e3b551;fill-opacity:1" />
  <path
     d="m 12.456881,100.52961 -5.3124483,13.81309 4.83e-4,1.7e-4 c -0.6620623,2.7173 2.8667673,3.32869 3.6897293,1.41906 l 4.83e-4,2.2e-4 5.312404,-13.81318 c 0.103829,-0.27022 0.696291,-0.79371 0.696291,-0.79371 0.02972,-0.0226 0.05277,-0.0486 0.06849,-0.0781 l 0.0025,-0.005 c 0.0029,-0.006 0.0062,-0.0113 0.0085,-0.0173 0.136947,-0.35617 -0.746587,-1.02749 -1.973482,-1.499347 -1.226983,-0.471863 -2.332664,-0.565638 -2.469639,-0.209458 0.01252,0.399601 -0.01,0.819865 -0.02331,1.183915 z"
     id="path3048"
     style="fill:#bbbbbb;fill-opacity:1;stroke:none" />
  <path
     d="m 14.139606,105.48569 -3.831007,9.96126 0.0025,9.3e-4 c -0.282553,0.71394 -1.1048444,1.08539 -1.8342819,0.80486 -0.7294376,-0.28054 -1.1242514,-1.12004 -0.855569,-1.83938 l 0,0 2.4479069,-6.36505 c 0,0 0.305736,-0.49315 0.906013,-0.84402 0.600277,-0.35083 1.09532,-0.27681 1.761889,-0.57306 0.666526,-0.29625 1.402549,-1.14554 1.402549,-1.14554 z"
     id="path3050"
     style="fill:#f74687;fill-opacity:1" />
  <path
     d="m 12.456881,28.52961 -5.3124483,13.813085 4.83e-4,1.75e-4 c -0.6620623,2.717295 2.8667673,3.328684 3.6897293,1.419055 l 4.83e-4,2.2e-4 5.312404,-13.813173 c 0.103829,-0.270219 0.696291,-0.79371 0.696291,-0.79371 0.02972,-0.02265 0.05277,-0.0486 0.06849,-0.07806 l 0.0025,-0.0054 c 0.0029,-0.0058 0.0062,-0.01133 0.0085,-0.01734 0.136947,-0.356177 -0.746587,-1.027488 -1.973482,-1.49935 -1.226983,-0.471863 -2.332664,-0.565638 -2.469639,-0.209458 0.01252,0.399601 -0.01,0.819867 -0.02331,1.183914 z"
     id="path3058"
     style="fill:#bbbbbb;fill-opacity:1;stroke:none" />
  <path
     d="m 14.139606,33.485685 -3.831007,9.961267 0.0025,9.22e-4 C 10.028546,44.161815 9.2062546,44.533272 8.4768171,44.252736 7.7473795,43.972201 7.3525657,43.1327 7.6212481,42.41336 l 0,0 2.4479069,-6.36505 c 0,0 0.305736,-0.493156 0.906013,-0.844023 0.600277,-0.350824 1.09532,-0.276804 1.761889,-0.573057 0.666526,-0.296254 1.402549,-1.145545 1.402549,-1.145545 z"
     id="path3060"
     style="fill:#94cd47;fill-opacity:1" />
  <path
     d="m 12.456881,4.529611 -5.3124483,13.813085 4.83e-4,1.75e-4 c -0.6620623,2.717295 2.8667673,3.328684 3.6897293,1.419055 l 4.83e-4,2.2e-4 5.312404,-13.813173 c 0.103829,-0.270219 0.696291,-0.79371 0.696291,-0.79371 0.02972,-0.02265 0.05277,-0.0486 0.06849,-0.07806 l 0.0025,-0.0054 c 0.0029,-0.0058 0.0062,-0.01133 0.0085,-0.01734 C 17.06026,4.698286 16.176726,4.026975 14.949831,3.555113 13.722848,3.08325 12.617167,2.989475 12.480192,3.345655 c 0.01252,0.399601 -0.01,0.819867 -0.02331,1.183914 z"
     id="path3068"
     style="fill:#bbbbbb;fill-opacity:1;stroke:none" />
</svg>
